<?xml version="1.0" encoding="UTF-8" standalone="no"?>
<!DOCTYPE svg PUBLIC "-//W3C//DTD SVG 1.1//EN" "http://www.w3.org/Graphics/SVG/1.1/DTD/svg11.dtd">
<svg width="100%" height="100%" viewBox="0 0 3895 3746" version="1.1" xmlns="http://www.w3.org/2000/svg" xmlns:xlink="http://www.w3.org/1999/xlink" xml:space="preserve" xmlns:serif="http://www.serif.com/" style="fill-rule:evenodd;clip-rule:evenodd;stroke-linejoin:round;stroke-miterlimit:2;">
    <g transform="matrix(5.58229,0,0,5.58229,-3982.78,-859.611)">
        <g transform="matrix(9.76277,-43.6858,43.6858,9.76277,743.924,448.823)">
            <rect x="0.075" y="-0.714" width="0.238" height="0.714" style="fill:rgb(255,0,0);fill-rule:nonzero;"/>
        </g>
        <g transform="matrix(13.2393,-42.7607,42.7607,13.2393,747.384,431.743)">
            <path d="M0.056,-0L0.268,-0L0.268,-0.266C0.268,-0.355 0.325,-0.396 0.4,-0.396C0.471,-0.396 0.51,-0.362 0.51,-0.293L0.51,-0L0.722,-0L0.722,-0.357C0.722,-0.492 0.625,-0.556 0.492,-0.556C0.385,-0.556 0.307,-0.517 0.264,-0.464L0.262,-0.464L0.262,-0.542L0.056,-0.542L0.056,-0Z" style="fill:rgb(255,0,0);fill-rule:nonzero;"/>
        </g>
        <g transform="matrix(16.8461,-41.4725,41.4725,16.8461,757.956,398.598)">
            <path d="M0,-0.402L0.111,-0.402L0.111,-0.139C0.111,-0.022 0.168,0.012 0.306,0.012C0.368,0.012 0.424,0.008 0.467,0.002L0.467,-0.13C0.439,-0.129 0.418,-0.128 0.392,-0.128C0.335,-0.128 0.323,-0.135 0.323,-0.184L0.323,-0.402L0.463,-0.402L0.463,-0.542L0.323,-0.542L0.323,-0.714L0.111,-0.714L0.111,-0.542L0,-0.542L0,-0.402Z" style="fill:rgb(255,0,0);fill-rule:nonzero;"/>
        </g>
        <g transform="matrix(20.6048,-39.7392,39.7392,20.6048,766.13,377.711)">
            <path d="M0.25,-0.331C0.262,-0.391 0.307,-0.442 0.407,-0.442C0.507,-0.442 0.552,-0.391 0.564,-0.331L0.25,-0.331ZM0.548,-0.161C0.523,-0.129 0.488,-0.1 0.42,-0.1C0.311,-0.1 0.261,-0.151 0.25,-0.221L0.782,-0.221L0.782,-0.237C0.782,-0.463 0.638,-0.564 0.406,-0.564C0.181,-0.564 0.032,-0.464 0.032,-0.272C0.032,-0.071 0.168,0.022 0.412,0.022C0.643,0.022 0.746,-0.071 0.772,-0.161L0.548,-0.161Z" style="fill:rgb(255,0,0);fill-rule:nonzero;"/>
        </g>
        <g transform="matrix(24.4066,-37.5243,37.5243,24.4066,783.107,345.429)">
            <path d="M0.06,-0L0.272,-0L0.272,-0.21C0.272,-0.308 0.326,-0.37 0.447,-0.37C0.487,-0.37 0.537,-0.362 0.564,-0.352L0.564,-0.55C0.543,-0.554 0.515,-0.556 0.492,-0.556C0.396,-0.556 0.313,-0.507 0.271,-0.435L0.269,-0.435L0.269,-0.542L0.06,-0.542L0.06,-0Z" style="fill:rgb(255,0,0);fill-rule:nonzero;"/>
        </g>
        <g transform="matrix(27.6299,-35.2186,35.2186,27.6299,796.916,323.74)">
            <path d="M0.056,-0L0.268,-0L0.268,-0.266C0.268,-0.355 0.325,-0.396 0.4,-0.396C0.471,-0.396 0.51,-0.362 0.51,-0.293L0.51,-0L0.722,-0L0.722,-0.357C0.722,-0.492 0.625,-0.556 0.492,-0.556C0.385,-0.556 0.307,-0.517 0.264,-0.464L0.262,-0.464L0.262,-0.542L0.056,-0.542L0.056,-0Z" style="fill:rgb(255,0,0);fill-rule:nonzero;"/>
        </g>
        <g transform="matrix(31.2255,-32.0738,32.0738,31.2255,818.391,296.329)">
            <path d="M0.276,-0.372C0.286,-0.418 0.324,-0.44 0.402,-0.44C0.495,-0.44 0.536,-0.42 0.536,-0.382C0.536,-0.354 0.527,-0.342 0.472,-0.338L0.261,-0.324C0.109,-0.314 0.027,-0.27 0.027,-0.147C0.027,-0.034 0.119,0.022 0.292,0.022C0.399,0.022 0.486,0.008 0.547,-0.05C0.548,-0.035 0.551,-0.016 0.558,-0L0.77,-0C0.753,-0.031 0.748,-0.052 0.748,-0.098L0.748,-0.372C0.748,-0.524 0.6,-0.556 0.403,-0.556C0.237,-0.556 0.084,-0.533 0.064,-0.372L0.276,-0.372ZM0.542,-0.22C0.542,-0.146 0.474,-0.1 0.352,-0.1C0.295,-0.1 0.257,-0.124 0.257,-0.166C0.257,-0.199 0.275,-0.216 0.318,-0.221L0.461,-0.238C0.5,-0.243 0.526,-0.248 0.542,-0.253L0.542,-0.22Z" style="fill:rgb(255,0,0);fill-rule:nonzero;"/>
        </g>
        <g transform="matrix(33.9307,-29.1971,29.1971,33.9307,844.117,270.425)">
            <path d="M0,-0.402L0.111,-0.402L0.111,-0.139C0.111,-0.022 0.168,0.012 0.306,0.012C0.368,0.012 0.424,0.008 0.467,0.002L0.467,-0.13C0.439,-0.129 0.418,-0.128 0.392,-0.128C0.335,-0.128 0.323,-0.135 0.323,-0.184L0.323,-0.402L0.463,-0.402L0.463,-0.542L0.323,-0.542L0.323,-0.714L0.111,-0.714L0.111,-0.542L0,-0.542L0,-0.402Z" style="fill:rgb(255,0,0);fill-rule:nonzero;"/>
        </g>
        <g transform="matrix(35.5819,-27.1604,27.1604,35.5819,861.127,255.959)">
            <path d="M0.06,-0L0.272,-0L0.272,-0.542L0.06,-0.542L0.06,-0ZM0.06,-0.604L0.272,-0.604L0.272,-0.732L0.06,-0.732L0.06,-0.604Z" style="fill:rgb(255,0,0);fill-rule:nonzero;"/>
        </g>
        <g transform="matrix(37.593,-24.3008,24.3008,37.593,872.738,246.569)">
            <path d="M0.407,-0.424C0.503,-0.424 0.563,-0.373 0.563,-0.271C0.563,-0.169 0.503,-0.118 0.407,-0.118C0.311,-0.118 0.251,-0.169 0.251,-0.271C0.251,-0.373 0.311,-0.424 0.407,-0.424ZM0.027,-0.271C0.027,-0.079 0.162,0.022 0.407,0.022C0.652,0.022 0.787,-0.079 0.787,-0.271C0.787,-0.463 0.652,-0.564 0.407,-0.564C0.162,-0.564 0.027,-0.463 0.027,-0.271Z" style="fill:rgb(255,0,0);fill-rule:nonzero;"/>
        </g>
        <g transform="matrix(40.0095,-20.0749,20.0749,40.0095,903.381,226.812)">
            <path d="M0.056,-0L0.268,-0L0.268,-0.266C0.268,-0.355 0.325,-0.396 0.4,-0.396C0.471,-0.396 0.51,-0.362 0.51,-0.293L0.51,-0L0.722,-0L0.722,-0.357C0.722,-0.492 0.625,-0.556 0.492,-0.556C0.385,-0.556 0.307,-0.517 0.264,-0.464L0.262,-0.464L0.262,-0.542L0.056,-0.542L0.056,-0Z" style="fill:rgb(255,0,0);fill-rule:nonzero;"/>
        </g>
        <g transform="matrix(41.9436,-15.6362,15.6362,41.9436,934.533,211.156)">
            <path d="M0.276,-0.372C0.286,-0.418 0.324,-0.44 0.402,-0.44C0.495,-0.44 0.536,-0.42 0.536,-0.382C0.536,-0.354 0.527,-0.342 0.472,-0.338L0.261,-0.324C0.109,-0.314 0.027,-0.27 0.027,-0.147C0.027,-0.034 0.119,0.022 0.292,0.022C0.399,0.022 0.486,0.008 0.547,-0.05C0.548,-0.035 0.551,-0.016 0.558,-0L0.77,-0C0.753,-0.031 0.748,-0.052 0.748,-0.098L0.748,-0.372C0.748,-0.524 0.6,-0.556 0.403,-0.556C0.237,-0.556 0.084,-0.533 0.064,-0.372L0.276,-0.372ZM0.542,-0.22C0.542,-0.146 0.474,-0.1 0.352,-0.1C0.295,-0.1 0.257,-0.124 0.257,-0.166C0.257,-0.199 0.275,-0.216 0.318,-0.221L0.461,-0.238C0.5,-0.243 0.526,-0.248 0.542,-0.253L0.542,-0.22Z" style="fill:rgb(255,0,0);fill-rule:nonzero;"/>
        </g>
        <g transform="matrix(43.0597,-12.2319,12.2319,43.0597,968.813,198.854)">
            <rect x="0.06" y="-0.732" width="0.212" height="0.732" style="fill:rgb(255,0,0);fill-rule:nonzero;"/>
        </g>
        <g transform="matrix(44.3005,-6.42055,6.42055,44.3005,999.949,190.451)">
            <path d="M0.072,-0L0.31,-0L0.31,-0.277L0.722,-0.277L0.722,-0.431L0.31,-0.431L0.31,-0.554L0.753,-0.554L0.753,-0.714L0.072,-0.714L0.072,-0Z" style="fill:rgb(255,0,0);fill-rule:nonzero;"/>
        </g>
        <g transform="matrix(44.7208,-1.95059,1.95059,44.7208,1033.65,185.478)">
            <path d="M0.056,-0.197C0.056,-0.034 0.156,0.022 0.286,0.022C0.393,0.022 0.471,-0.017 0.514,-0.07L0.516,-0.07L0.516,-0L0.722,-0L0.722,-0.542L0.51,-0.542L0.51,-0.268C0.51,-0.179 0.453,-0.138 0.378,-0.138C0.307,-0.138 0.268,-0.17 0.268,-0.262L0.268,-0.542L0.056,-0.542L0.056,-0.197Z" style="fill:rgb(255,0,0);fill-rule:nonzero;"/>
        </g>
        <g transform="matrix(44.6712,2.87074,-2.87074,44.6712,1068.53,183.91)">
            <path d="M0.563,-0.221C0.549,-0.152 0.496,-0.118 0.416,-0.118C0.314,-0.118 0.256,-0.173 0.256,-0.271C0.256,-0.369 0.316,-0.424 0.415,-0.424C0.505,-0.424 0.549,-0.39 0.559,-0.331L0.777,-0.331C0.758,-0.503 0.614,-0.564 0.412,-0.564C0.179,-0.564 0.032,-0.467 0.032,-0.271C0.032,-0.071 0.172,0.022 0.412,0.022C0.65,0.022 0.755,-0.066 0.787,-0.221L0.563,-0.221Z" style="fill:rgb(255,0,0);fill-rule:nonzero;"/>
        </g>
        <g transform="matrix(44.0628,7.88864,-7.88864,44.0628,1104.9,186.195)">
            <path d="M0.056,-0L0.268,-0L0.268,-0.14L0.349,-0.205L0.503,-0L0.791,-0L0.517,-0.341L0.767,-0.542L0.48,-0.542L0.268,-0.353L0.268,-0.732L0.056,-0.732L0.056,-0Z" style="fill:rgb(255,0,0);fill-rule:nonzero;"/>
        </g>
        <g transform="matrix(43.0431,12.2904,-12.2904,43.0431,1139.21,192.28)">
            <path d="M0.027,-0.169C0.032,-0.005 0.235,0.022 0.385,0.022C0.61,0.022 0.732,-0.038 0.732,-0.166C0.732,-0.272 0.66,-0.317 0.514,-0.333L0.331,-0.353C0.277,-0.359 0.263,-0.374 0.263,-0.391C0.263,-0.428 0.299,-0.442 0.36,-0.442C0.387,-0.442 0.415,-0.439 0.436,-0.43C0.457,-0.422 0.472,-0.407 0.474,-0.384L0.712,-0.384C0.7,-0.538 0.518,-0.564 0.374,-0.564C0.171,-0.564 0.045,-0.518 0.045,-0.371C0.045,-0.279 0.108,-0.235 0.232,-0.22L0.421,-0.197C0.473,-0.191 0.494,-0.183 0.494,-0.154C0.494,-0.115 0.444,-0.106 0.397,-0.106C0.351,-0.106 0.322,-0.112 0.303,-0.123C0.284,-0.133 0.276,-0.149 0.273,-0.169L0.027,-0.169Z" style="fill:rgb(255,0,0);fill-rule:nonzero;"/>
        </g>
        <g transform="matrix(41.8527,15.878,-15.878,41.8527,1171.82,201.879)">
            <path d="M0,-0.402L0.111,-0.402L0.111,-0.139C0.111,-0.022 0.168,0.012 0.306,0.012C0.368,0.012 0.424,0.008 0.467,0.002L0.467,-0.13C0.439,-0.129 0.418,-0.128 0.392,-0.128C0.335,-0.128 0.323,-0.135 0.323,-0.184L0.323,-0.402L0.463,-0.402L0.463,-0.542L0.323,-0.542L0.323,-0.714L0.111,-0.714L0.111,-0.542L0,-0.542L0,-0.402Z" style="fill:rgb(255,0,0);fill-rule:nonzero;"/>
        </g>
        <g transform="matrix(40.2284,19.6325,-19.6325,40.2284,1192.88,209.583)">
            <path d="M0.276,-0.372C0.286,-0.418 0.324,-0.44 0.402,-0.44C0.495,-0.44 0.536,-0.42 0.536,-0.382C0.536,-0.354 0.527,-0.342 0.472,-0.338L0.261,-0.324C0.109,-0.314 0.027,-0.27 0.027,-0.147C0.027,-0.034 0.119,0.022 0.292,0.022C0.399,0.022 0.486,0.008 0.547,-0.05C0.548,-0.035 0.551,-0.016 0.558,-0L0.77,-0C0.753,-0.031 0.748,-0.052 0.748,-0.098L0.748,-0.372C0.748,-0.524 0.6,-0.556 0.403,-0.556C0.237,-0.556 0.084,-0.533 0.064,-0.372L0.276,-0.372ZM0.542,-0.22C0.542,-0.146 0.474,-0.1 0.352,-0.1C0.295,-0.1 0.257,-0.124 0.257,-0.166C0.257,-0.199 0.275,-0.216 0.318,-0.221L0.461,-0.238C0.5,-0.243 0.526,-0.248 0.542,-0.253L0.542,-0.22Z" style="fill:rgb(255,0,0);fill-rule:nonzero;"/>
        </g>
        <g transform="matrix(38.5412,22.767,-22.767,38.5412,1225.41,225.953)">
            <path d="M0.06,-0L0.272,-0L0.272,-0.542L0.06,-0.542L0.06,-0ZM0.06,-0.604L0.272,-0.604L0.272,-0.732L0.06,-0.732L0.06,-0.604Z" style="fill:rgb(255,0,0);fill-rule:nonzero;"/>
        </g>
        <g transform="matrix(36.7078,25.6183,-25.6183,36.7078,1238.43,233.209)">
            <path d="M0.056,-0L0.268,-0L0.268,-0.266C0.268,-0.355 0.325,-0.396 0.4,-0.396C0.471,-0.396 0.51,-0.362 0.51,-0.293L0.51,-0L0.722,-0L0.722,-0.357C0.722,-0.492 0.625,-0.556 0.492,-0.556C0.385,-0.556 0.307,-0.517 0.264,-0.464L0.262,-0.464L0.262,-0.542L0.056,-0.542L0.056,-0Z" style="fill:rgb(255,0,0);fill-rule:nonzero;"/>
        </g>
        <g transform="matrix(31.969,31.3328,-31.3328,31.969,1280.57,264.139)">
            <path d="M0.836,-0.505C0.821,-0.674 0.665,-0.736 0.406,-0.736C0.093,-0.736 0.035,-0.603 0.035,-0.509C0.035,-0.403 0.092,-0.329 0.239,-0.307L0.477,-0.271C0.56,-0.258 0.59,-0.245 0.59,-0.207C0.59,-0.146 0.525,-0.132 0.465,-0.132C0.341,-0.132 0.311,-0.166 0.305,-0.22L0.023,-0.22C0.037,-0.021 0.212,0.022 0.454,0.022C0.552,0.022 0.866,0.02 0.866,-0.222C0.866,-0.348 0.786,-0.402 0.653,-0.425C0.583,-0.437 0.4,-0.464 0.34,-0.474C0.304,-0.48 0.287,-0.494 0.287,-0.518C0.287,-0.565 0.331,-0.588 0.411,-0.588C0.52,-0.588 0.559,-0.554 0.566,-0.505L0.836,-0.505Z" style="fill:rgb(255,0,0);fill-rule:nonzero;"/>
        </g>
        <g transform="matrix(28.1461,34.8074,-34.8074,28.1461,1308.94,292.073)">
            <path d="M0.407,-0.424C0.503,-0.424 0.563,-0.373 0.563,-0.271C0.563,-0.169 0.503,-0.118 0.407,-0.118C0.311,-0.118 0.251,-0.169 0.251,-0.271C0.251,-0.373 0.311,-0.424 0.407,-0.424ZM0.027,-0.271C0.027,-0.079 0.162,0.022 0.407,0.022C0.652,0.022 0.787,-0.079 0.787,-0.271C0.787,-0.463 0.652,-0.564 0.407,-0.564C0.162,-0.564 0.027,-0.463 0.027,-0.271Z" style="fill:rgb(255,0,0);fill-rule:nonzero;"/>
        </g>
        <g transform="matrix(24.1168,37.7113,-37.7113,24.1168,1331.85,320.404)">
            <path d="M0.563,-0.221C0.549,-0.152 0.496,-0.118 0.416,-0.118C0.314,-0.118 0.256,-0.173 0.256,-0.271C0.256,-0.369 0.316,-0.424 0.415,-0.424C0.505,-0.424 0.549,-0.39 0.559,-0.331L0.777,-0.331C0.758,-0.503 0.614,-0.564 0.412,-0.564C0.179,-0.564 0.032,-0.467 0.032,-0.271C0.032,-0.071 0.172,0.022 0.412,0.022C0.65,0.022 0.755,-0.066 0.787,-0.221L0.563,-0.221Z" style="fill:rgb(255,0,0);fill-rule:nonzero;"/>
        </g>
        <g transform="matrix(21.1078,39.4743,-39.4743,21.1078,1351.13,351.311)">
            <path d="M0.06,-0L0.272,-0L0.272,-0.542L0.06,-0.542L0.06,-0ZM0.06,-0.604L0.272,-0.604L0.272,-0.732L0.06,-0.732L0.06,-0.604Z" style="fill:rgb(255,0,0);fill-rule:nonzero;"/>
        </g>
        <g transform="matrix(17.9359,41.0129,-41.0129,17.9359,1358.55,364.295)">
            <path d="M0.25,-0.331C0.262,-0.391 0.307,-0.442 0.407,-0.442C0.507,-0.442 0.552,-0.391 0.564,-0.331L0.25,-0.331ZM0.548,-0.161C0.523,-0.129 0.488,-0.1 0.42,-0.1C0.311,-0.1 0.261,-0.151 0.25,-0.221L0.782,-0.221L0.782,-0.237C0.782,-0.463 0.638,-0.564 0.406,-0.564C0.181,-0.564 0.032,-0.464 0.032,-0.272C0.032,-0.071 0.168,0.022 0.412,0.022C0.643,0.022 0.746,-0.071 0.772,-0.161L0.548,-0.161Z" style="fill:rgb(255,0,0);fill-rule:nonzero;"/>
        </g>
        <g transform="matrix(14.2613,42.4308,-42.4308,14.2613,1372.82,397.783)">
            <path d="M0,-0.402L0.111,-0.402L0.111,-0.139C0.111,-0.022 0.168,0.012 0.306,0.012C0.368,0.012 0.424,0.008 0.467,0.002L0.467,-0.13C0.439,-0.129 0.418,-0.128 0.392,-0.128C0.335,-0.128 0.323,-0.135 0.323,-0.184L0.323,-0.402L0.463,-0.402L0.463,-0.542L0.323,-0.542L0.323,-0.714L0.111,-0.714L0.111,-0.542L0,-0.542L0,-0.402Z" style="fill:rgb(255,0,0);fill-rule:nonzero;"/>
        </g>
        <g transform="matrix(10.6565,43.4764,-43.4764,10.6565,1380.09,418.965)">
            <path d="M0.064,0.19C0.105,0.193 0.157,0.196 0.213,0.196C0.345,0.196 0.377,0.15 0.416,0.068L0.704,-0.542L0.48,-0.542L0.348,-0.22L0.211,-0.542L-0.019,-0.542L0.236,-0.031L0.212,0.017C0.202,0.036 0.189,0.056 0.115,0.056L0.064,0.056L0.064,0.19Z" style="fill:rgb(255,0,0);fill-rule:nonzero;"/>
        </g>
    </g>
    <g transform="matrix(-10.7401,-1.31529e-15,1.31529e-15,-10.7401,4450.34,3745.49)">
        <path d="M233.1,0C206.6,0 181.6,6.3 159.4,17.5L161.2,21C182.6,10.2 206.4,4.3 231.1,4L231.1,33.7C211,34 191.9,38.9 175,47.3L176.8,50.8C193.5,42.5 212,38 231.1,37.7L231.1,64.6C216.1,64.9 202,68.5 189.3,74.7C179.8,79.3 171.2,85.4 163.7,92.6L144.7,73.5C154.3,64.2 165.2,56.6 176.9,50.8L175.1,47.3C162.9,53.4 151.7,61.3 142,70.7L120.9,49.6C133,37.8 146.6,28.2 161.3,20.8L159.5,17.3C127.4,33.4 101.3,59.7 85.4,91.9C74.6,113.8 68.4,138.5 68.4,164.6C68.4,180.6 70.7,196.2 75,211L78.9,210C74.8,196 72.6,181.4 72.4,166.5L102,166.5C102.2,178.9 104.1,191.1 107.6,202.7L111.5,201.7C108.1,190.4 106.2,178.6 106,166.4L132.9,166.4C133,170.4 133.3,174.3 133.8,178.1C131.9,178.3 130.2,178.9 130.2,178.9L129.4,181.6C127.6,181.9 126.4,185 126.4,185C124.9,185.5 123.7,187.4 124.2,187.9C124.7,188.4 123.4,188.6 123.4,188.6L123.4,192.3L122.6,193.5L122.8,197.5C123.8,197.5 123.6,199.4 123.6,199.4C121.9,199.6 122.3,201.8 122.3,201.8L118.8,203L118.1,204L113.8,203.8L112.6,205C112.2,203.9 111.9,202.8 111.5,201.7L107.6,202.7C107.7,203.1 107.8,203.5 108,203.9L103.1,203.9L102.8,203.1L101.1,202.8L100.9,200.9L98.4,201.1L97.9,202.1L95.2,202.3C95.4,204 92.5,206.5 92.2,205.8C91.9,205.1 90,203.3 90.9,202.9C91.7,202.6 93.9,202.2 93.9,202.2L93.9,201L87.7,200.8L87,201.8L84.5,202L84.5,204.7L83.3,205C82.5,205.5 83.5,207.4 83.5,207.4C84.7,208.6 83.3,210.4 83.3,210.4C82.3,211.4 84.1,213.3 84.1,213.3C85.4,213.6 83.3,214.6 83.3,214.6C83.6,216.3 84.6,216.8 84.6,216.8C83.6,218.5 85.3,219.3 85.3,219.3L85.5,222.2L86.7,222.9L86.7,224.8L87.4,226L90.1,226L90,222C87.7,219.3 92,218.6 92.2,219.6C92.4,220.6 94.2,221.1 94.2,221.1C94.5,223.6 97.4,225.1 98.2,222.6C99,220.1 99.7,221.6 100.2,222.8C100.7,224 103.9,226.9 103.9,226.9L106.4,226.9L106.7,229.3C109.5,229.1 110.4,229.5 111.5,233.3C112.7,237.2 115.8,238.2 115.8,238.2L118.1,238C118.1,236 120.4,238.3 120.4,239.4C120.4,240.4 124.9,244.3 124.9,244.3L129.4,245.3L130.2,246C133,249.5 135.9,252.8 139,256.1L118,277.1C99.4,258 86.2,234.9 78.9,210L75,211C82.7,237.2 96.7,261.5 116.5,281.4C129.9,294.8 145.3,305.7 162,313.6L164,310.1C148.2,302.6 133.7,292.5 120.8,279.9L141.8,258.9C152.7,269.5 165.2,278 178.6,284.1L180.6,280.6C167.4,274.6 155.3,266.4 144.6,256.1L148.5,252.2C148.7,252.6 148.9,253 148.9,253.6C149.2,256.1 150.4,255.6 150.4,255.6L159.9,255.4L163.2,252.5L171.7,252.3C176,252.1 173.4,246.2 172.5,246.2C172,245.8 171.9,245 172,244.1C178.8,249.3 186.1,253.6 193.8,256.9L195.8,253.4C186.9,249.7 178.5,244.5 171,238.2L166.5,234L187.4,213.1C194.2,219.5 202,224.3 210.5,227.3C212.8,228.1 215.2,228.8 217.6,229.4C217.2,229.8 217,230.1 217.1,230.3C217.4,231.1 215.8,232 215.8,232L214.3,232.5L213.3,234L211.3,234.7L211,238.2L210,238.9L210,240.4L208.8,240.7L208.8,241.5L207.1,241.7L208.1,244.2L209.4,244.9C211.7,245.2 210.7,248.1 210.7,248.1L212,248.3L212.7,250.2L214,252.9C214.5,254.9 216,254.4 216.7,254.3C217.4,254.1 218,256.3 218,256.3L224.6,256.5C224.6,256.5 224.3,257.2 225.4,257.5C226,257.7 228.6,257.9 230.9,257.9L230.9,260.9C218.6,260.7 206.8,258 195.8,253.4L193.8,256.9C205.4,261.8 217.9,264.7 230.9,264.9L230.9,291.8C213.2,291.5 196.1,287.6 180.4,280.5L178.4,284C194.7,291.4 212.5,295.5 230.9,295.8L230.9,325.5C207.3,325.2 184.5,319.9 163.8,310L161.8,313.5C183.7,324 207.9,329.5 232.9,329.5C259.1,329.5 284.4,323.4 307.2,311.9C322.6,304.1 336.9,293.8 349.5,281.3C362.7,268.1 373.4,253 381.3,236.7C392,214.6 397.7,190.1 397.7,164.8C397.7,143.3 393.6,122.4 385.7,103C377.5,82.8 365.3,64.2 349.4,48.3C333.4,32.3 314.8,20.1 294.4,11.9C275.3,4.1 254.5,0 233.1,0ZM235.1,4C255.3,4.2 275,8.2 293.2,15.6C312.4,23.3 330.1,34.8 345.4,49.7L327.6,67.5C327,67.7 326.3,67.7 325.9,67.5C324.7,67 326.4,65.8 326.4,65.8L326.4,64.5L325.4,63.5C325.4,63.5 322.6,63.8 322.4,63.3C322.2,62.8 321.7,60.6 321.7,60.6L321.5,57.7L320.3,57.2L320.1,56.2L318.3,56.4L318.3,54.4L317.3,54.1L316.3,53.6L316.1,51.6L312.4,51.4L311.2,49.7L309.9,47.7L305.7,47.4L304.7,46.4L303,46.1L301.8,45.6L301.3,46.4L298.1,46.6L297.9,47.6C296.9,48.1 294.2,48.1 292.1,48.1C288.8,46.4 285.7,44.7 282.3,43.3L280.9,47C283.7,48.1 286,49.5 288.7,50.9C288.5,51.5 288.3,51.9 287.9,51.9C287.1,51.9 287.4,54.1 287.4,54.1C287.4,54.1 289.6,54.1 290.2,54.3C290.9,54.5 290.9,56.2 290.9,56.2C293.4,56 294.4,59.4 294.1,60.3C293.8,61.1 295.1,61.1 295.1,61.1C295.1,61.1 295.1,63.8 294.8,64.5C294.5,65.2 297,65.7 297.6,66.7C298.3,67.7 297.3,71.1 296.8,71.3C296.3,71.5 298.1,72 298,72.8C297.8,73.6 298.5,72.8 298.7,74.2C298.9,75.5 299.2,78.4 299.2,78.4L301.5,78.6C301.8,76.4 306.1,76.3 306.8,76.6C309.6,77.6 311.8,82 311.8,83C311.8,84 310,84.2 310,84.2L310.1,85.3L304.3,91.1C303.7,90.7 303.1,90.5 302.8,90.8C302,91.3 302.3,87.3 302.3,87.3C302.3,87.3 303.8,86.3 304.5,86.8C305.2,87.3 298.9,78.4 297.5,79.2C296.2,80 293.2,78.4 293.3,76.8C293.5,75.3 287.3,70.2 287.3,70.2C287.3,70.2 285.3,68.9 285,69.9C284.7,70.9 284,71.6 285,72.1C286,72.6 285.8,71.3 287,72.4C288.2,73.6 290.3,75.1 289.5,76.1C288.7,77.1 287.7,77.4 287.7,77.4L288.9,78.8L290.7,78.8L291,81.7C291,81.7 293,82.7 293.5,83.9C293.8,84.7 293.9,85.2 293.8,85.7C290.1,82.9 286.2,80.3 282.2,78C282.2,77.7 282.3,77.4 282.2,77.1C281.9,75.9 283.5,75.4 284.4,76.8L286.1,76.6L286.4,75.1L284.1,73.2L282.3,73.2C282.3,73.2 282.1,74.5 281,74C279.8,73.5 280.5,73.7 279.5,73.5C278.6,73.3 278.8,75.2 279,76.1C276.4,74.8 273.8,73.6 271.1,72.5C259.8,67.9 247.7,65.3 235.1,65.1L235.1,49.8C236.2,49.8 236.7,49.4 236.8,49C237,48.3 237.1,48.2 238.1,48C239.1,47.8 237.9,45.8 236.9,46C236.2,46.1 235.5,45.9 235.1,45.4L235.1,37.7C251.1,37.9 266.5,41.1 280.9,47L282.3,43.3C267.5,37.3 251.5,34 235,33.8L235.1,4ZM262.9,11.1L261.3,12.1L260.2,11.4L259.7,12.3L261,13.1L261.3,13.3L263.4,11.9L262.9,11.1ZM270.5,15.1L269.2,16.2L268.4,15.3L267.7,16L269.2,17.5L269.5,17.2L271.2,15.9L270.5,15.1ZM258.5,18.1C257.8,18.2 257.1,18.5 257,18.8C256.8,19.5 255.8,19.6 255.8,19.6L252,19.9C251.7,20.9 249.7,21.6 249.5,20.9C249.1,19.4 247,22.8 249.2,23.4C251.4,24.1 253.5,23.4 253.5,23.4L254,22.4L262.3,22.6C263,21.9 263.3,20.9 263.3,20.9C263.3,20.9 265.3,20.2 266.1,20.6C266.9,20.9 266.3,18.2 265.4,18.6C264.6,18.9 262.9,18.8 262.9,18.8L259.9,18.8C259.9,18.2 259.2,18 258.5,18.1ZM244.2,21.5L242,22.3L239.7,23.8L237.2,24.1L235.9,25.6L241.2,26.1L242.2,27.8L246,28.1L248.5,30.6C250.7,31.3 251.2,30.3 249.8,29.1L247.6,26.9L247.6,25L246.9,24.3L246.2,21.9L244.2,21.5ZM310.3,41.8C309,41.8 307,42.7 307.2,43.7C307.4,44.5 308,45.4 309.4,45.7L311.9,46.5C311.9,46.5 315,50.2 314.9,48.4C314.6,43.3 312.2,43.2 311.4,42.2C311.2,42 310.8,41.8 310.3,41.8ZM258.2,43.9L257.5,45.4L258.4,45.8L259.1,44.3L258.2,43.9ZM261.3,45.5C261.2,45.4 260.3,46.7 259.6,47.1C260.4,47.5 261.5,48.1 261.5,48.1C262.8,48.1 263.7,49.1 263.7,49.6C263.7,50.1 265.5,49.9 265.5,49.9L265.7,48.7L264.4,47L263.2,46.2C263.2,46.3 261.3,46.1 261.3,45.5ZM259.6,47.1C258.8,46.7 258.3,46.5 259.2,47.1C259.3,47.2 259.5,47.2 259.6,47.1ZM254.1,46.6L254,47.6L255.4,47.7L256.4,49.3L257.2,48.8L256,46.9L255.9,46.7L255.7,46.7C255.7,46.8 254.1,46.6 254.1,46.6ZM215.7,50.8C214.8,50.8 214,51 214,51.3C214.2,52.1 215.5,53.2 215.5,53.2C215.5,53.2 218,53.4 218.2,53.9C218.4,54.4 220,54.6 220.2,54.1C220.4,53.6 221,52.6 219.5,52.6C218,52.6 218.3,51.8 217.8,51.2C217.5,50.9 216.6,50.8 215.7,50.8ZM348.2,52.5C363.1,67.7 374.5,85.4 382.3,104.6C389.7,122.9 393.7,142.6 393.9,162.8L364.2,162.8C364,146.6 360.8,130.9 355,116.3C354.2,114.2 353.3,112.1 352.3,110C352.6,109.1 353.1,108.2 354.2,108.5C355.9,109 354.7,104.8 354.7,104.8C354.7,104.8 352.4,103.1 352.5,102.3C352.7,101.5 350.2,99.8 350.3,99.1C350.5,98.4 348.1,97.1 348.3,96.4C348.5,95.7 347.1,93.9 347.1,93.9L344.6,91.5L344.3,90L342.3,89.8L338.3,84.9L338.5,83.5L337.3,83.3L337.3,81.4L336.1,80.7L334.3,80.5L330.6,76.5L330.3,74.6L328.5,74.6L328.8,71.7L348.2,52.5ZM257.9,52.5L257.9,54L259.7,54.2L259.2,52.8L257.9,52.5ZM118,52.5L139,73.6C129.2,83.7 121,95.3 114.9,108.2C106.9,124.8 102.3,143.3 102,162.9L72.3,162.9C72.6,138.6 78.3,115.2 88.7,94C96.1,78.9 105.9,64.9 118,52.5ZM266,60.4C265.8,60.4 265.7,60.5 265.7,60.6C265.7,61.1 266.4,61.1 266.7,62.1C267,63.1 266.9,64.8 268.4,65.1C269.9,65.4 270.2,65.8 270.4,66.4C270.6,67.1 272.4,67.2 272.4,67.2L273.7,67.9L277.7,71.3L277.7,70C277.7,70 277.5,68.7 276.7,68.7C275.9,68.7 274.4,67.7 274.7,67C275,66.3 271.9,65.7 271.9,65.7C271.9,65.7 269.1,63 270.1,63.3C271.1,63.6 270.6,62.1 270.6,62.1C270.6,62.1 268.6,62.4 268.1,62.3C267.6,62.1 267.8,60.6 267.8,60.6C267.8,60.6 266.5,60.3 266,60.4ZM174.6,61.6L173.9,62.3L174.9,63.3L175.6,62.6L174.6,61.6ZM231.1,68.6L231.1,98.3C221.8,98.6 212.9,100.8 204.9,104.5L206.7,108C214.3,104.5 222.5,102.5 231.1,102.2L231.1,129.2C227.6,129.4 224.2,130.1 221,131.3L220.8,129.4L221.6,128.9L220.3,128.4L219.3,129.7L219,131.2L217.3,131.5L217.3,132.3L216.1,132.3L216.1,133.3C213.7,134.6 211.4,136.2 209.3,138.1L190.2,119C195.1,114.4 200.7,110.6 206.7,107.8L204.9,104.3C198.5,107.3 192.6,111.3 187.5,116.2L166.5,95.2C173.9,88.1 182.2,82.4 191.2,78C203.4,72.2 217,68.8 231.1,68.6ZM235.1,68.6C247.1,68.8 258.8,71.3 269.6,75.7C272.6,76.9 275.5,78.3 278.3,79.8C278.4,79.9 278.6,80 278.8,80.1C283.5,82.6 288,85.6 292.2,88.9C292.4,90.1 293.7,90.6 293.7,90.6L294.5,90.7C295,91.1 295.6,91.6 296.1,92L296.1,93.4C297.3,93.1 299.1,94.5 299.4,95.6L278.7,116.3C272.8,110.7 266,106.4 258.7,103.3C251.3,100.2 243.3,98.5 235,98.2L235.1,68.6ZM141.8,76.3L160.9,95.4C153.2,103.4 146.9,112.7 142.1,122.8C136.5,135 133.2,148.5 132.9,162.8L106,162.8C106.3,144.2 110.5,126.3 118.4,110C124.2,97.7 132.1,86.3 141.8,76.3ZM311.6,89.1C313.9,90.5 315.7,93.6 315.4,94.2C315.1,94.9 317.4,94.7 317.4,94.7C317.7,91.7 320.6,92.7 320.7,93.7C320.9,94.7 321.4,96.9 321.4,96.9L322.2,98.4L323.4,99.6L325.2,99.4L325.7,100.4L327.9,100.7C327.9,100.7 329.7,102.7 329.9,103.2C330.1,103.7 332.6,103.5 333.2,103.7C333.9,103.9 334.9,104.4 335,105.2C335.2,106 336.2,107.4 336.2,107.4C336.2,107.4 338.2,107.9 338.4,108.6C338.6,109.3 339.4,110.8 339.4,110.8L341.1,112.2L341.3,113.7L343.1,113.9L343.6,115.9L346.6,115.7L348.3,114.5C348.8,114.2 349.3,113.9 349.7,113.6C350.3,115 350.9,116.4 351.4,117.8C357,131.9 360.1,147.1 360.3,162.7L333.4,162.7C333.3,157.9 332.9,153.2 332.1,148.6C332.3,147.9 332.4,147.3 332.1,147.1C331.6,146.6 332.6,144.2 332.6,144.2C332.6,144.2 333.3,142.8 332.6,141.5C331.9,140.1 332.8,138.6 333.3,138L332,137.3L330.7,137.1L329.7,137.3C329.4,136.2 329.1,135.2 328.7,134.1L329.5,134.3L329.5,133.3L328.3,133C328.1,132.3 327.8,131.6 327.6,130.9L327.4,127.4L326.2,126.6L326.5,125.3L325.2,124.8L325.9,122.6L324.7,120.2L323,120.2C322.2,118.6 321.4,117 320.5,115.5C320.7,115.4 320.9,115.3 321.2,115.2C322.1,115 322.4,114.9 322.5,114.9L322.3,113.1L320.8,112.1L320.3,110.1C320.3,110.1 318.5,110.4 318.6,111.4C318.6,111.6 318.5,111.8 318.3,111.9C317.1,110 315.9,108.2 314.6,106.4C314.6,106.3 314.7,106.2 314.7,106.1C315.4,104.9 315,104.2 313.9,103.9C312.7,103.6 312.7,103.6 312.4,102.2C312.1,100.9 310.7,100.5 310.7,100.5L310.2,98.5L309,99.3C308.3,98.5 307.7,97.8 307,97L307.6,95.1C306.9,95 306.6,94.6 306.4,94.2L311.6,89.1ZM204.8,93.1L204.2,93.9L205.2,94.7L205.8,93.9L204.8,93.1ZM201,93.8L201.2,95.7L203.7,95.7C204.7,95.7 202.9,94.5 202.9,94.5C202.9,94.5 200.8,94.7 201,93.8ZM311.5,94.1L310.5,94.2L310.7,95.7L311.7,95.6L311.5,94.1ZM163.6,98.2L184.6,119.2C180.2,123.8 176.5,129.1 173.6,134.8C172.9,134.8 172.2,134.9 172,135.5C171.5,136.8 169.3,136.5 169.3,136.5L169,137.2L167.3,137.5L167,138.5L165,138.8L170,138.6C171.3,138.4 169.5,141.5 168.7,141.3L166.4,141.5L165.6,142.3L163.4,142.3L162.4,143.7L159.2,143.5C159.2,143.5 157.4,145 157.5,145.5C157.7,146 157.2,147.5 156.7,147.5C156.2,147.5 155.2,149 155.5,149.5C155.8,150 154.5,151.7 154.5,151.7L154.2,153.4L153.2,153.7L153.2,158.3L151.2,159.6L151.2,161.6L150.3,162.6L136.8,162.6C137.1,149.2 140.1,136.3 145.5,124.5C150,115 156.1,106 163.6,98.2ZM302.2,98.5C302.9,99.2 302.8,99.4 303.8,100.1C304.1,100.3 304.4,100.5 304.7,100.5C305.2,101.1 305.8,101.7 306.3,102.3L305.9,102.8C305.9,104.7 306.8,104.2 307.7,104C308,104.3 308.2,104.7 308.5,105C308.6,106.1 308.6,107.7 310.4,107.5L310.5,107.5C312.6,110.4 314.6,113.4 316.4,116.4L316.5,116.6C316.8,117.1 317.1,117.6 317.3,118.1C316.9,118.4 316.7,118.8 316.7,118.8L314,119.1L314,121.8L312.7,122.3L312.9,124L314.7,123.8C314.7,123.8 314.7,125.8 315.2,125C315.7,124.2 319.9,125.2 319.5,127.2C319.4,128 323.7,130.2 323.2,132.9C323.5,133 323.8,133.1 324,133.2C324.8,135.5 325.5,137.9 326.1,140.2L325.8,140.8C325.8,140.8 326.1,141 326.4,141.3C326.9,143.4 327.4,145.5 327.7,147.6C327.6,149.4 327.2,151.2 326.2,151.7C324.2,152.9 326.4,152.2 326.4,152.2L326.1,155.9C326.6,157.6 327.4,156.7 327.9,155.9C328.2,155.5 328.4,155.2 328.7,154.9C329,157.4 329.1,160 329.2,162.6L309.1,162.6C309.2,162.5 309.4,162.1 309.4,162.1L310.2,159.7L313,158.9L313.3,156.7L311.8,156.5C311.8,156.5 313.5,153.5 314.3,153.5C315.1,153.5 320.6,153.5 321.1,153.2C321.6,152.9 322.6,150.2 322.6,149.7C322.6,149.2 323.9,149 324.4,148.9C324.9,148.7 326.1,147.4 326.4,146.7C326.7,146 325.6,141.8 324.9,142.5C324.2,143.2 322.7,143.5 322.7,143.5L322.2,145.4L321.4,146.1C321.4,146.1 321.6,146.6 321.4,147.8C321.2,149 319.7,149.7 319.7,149.7L319,150.5C319,150.5 315,150.7 314.5,150.5C313,149.8 314,147.8 315,148C316,148.2 314.8,145.1 314.8,145.1L316.1,144.9C316.1,144.9 316.3,141.9 316.8,141.9C317.3,141.9 316.6,140.9 316,140.4C315.3,139.9 314.5,138.2 313.8,138.4C313.1,138.6 310.5,138.4 310.5,138.4L310,139.4L308.2,139.7C308.2,139.7 308.4,141 308,141.4C307,142.6 303.2,145.1 304.8,140.9L305.3,139.9L305.3,138.4L302.3,138.2C302.3,138.2 300.8,137.7 300.8,137C300.8,136.3 300.6,135.5 300.6,135.5L297.1,131.6L292.9,131.1L292.6,130.3L290.1,130C289.7,129.8 289.4,129.7 289,129.6C287.8,127.7 286.6,125.9 285.2,124.2C285.2,124.1 285.1,123.9 285.1,123.8C285,123.2 283.1,120.6 282.1,120.5C281.7,120.1 281.4,119.7 281,119.3L302.2,98.5ZM318.5,100.6C318.3,100.6 318.1,100.8 318.1,101.1C318.1,101.8 318.9,102.1 318.6,103C318.3,103.8 318.9,104.5 319.6,104.5C320.3,104.5 320.8,104.8 321.4,105.2C322.1,105.5 322.6,106 323.1,106.7L324.8,106.2C324.8,106.2 325,104.5 324.3,105C323.6,105.5 323.1,103.8 322.5,104C321.8,104.2 321.5,103.3 320.8,102.5C320.1,101.7 320.3,101.5 319.5,101C319.1,100.7 318.8,100.5 318.5,100.6ZM235.1,102.3C242.8,102.5 250.3,104.2 257.3,107.1C264.1,110 270.4,114 275.9,119.2L274.8,120.3C274.3,119.8 272.5,119.4 272.5,118.8C272.5,118.1 270.8,117.3 271,118.3C271.2,119.3 269.8,119.8 269.5,119.5C269.2,119.2 268.2,120.5 268.2,120.5C268.2,121 267.9,121.7 268.9,121.9C269.9,122.1 271.7,121.2 271.9,122.2C272,122.5 272,122.8 272.1,123.1L265.5,129.7C264.6,129.7 263.8,129.6 263.8,129.6C263.3,131.1 261,129.4 261.6,128.4C262.3,127.4 262.3,126.7 262.3,126.7L261.5,126.5L260.5,128.4C258.2,128.4 257.5,129.7 258,130.6C258.5,131.4 257.3,130.4 257,131.6C256.7,132.8 257.2,132.8 258.2,133.3C259.2,133.8 257.7,133.8 258.4,134.6C258.8,135.1 259.8,135 260.1,135.1L258.8,136.4C257.7,136.8 256.3,136.5 256.3,136.5C256.3,136.8 256.1,137.1 255.8,137.2C253.1,135 250.2,133.2 247,131.9C247.5,131.5 248.4,131.5 248.8,130.4C249.5,128.5 249.8,125.5 249.8,125.5C249.8,125.5 247.1,125.3 247,126.2C246.8,127 245.2,127.5 245.2,127.5C245.2,127.5 243.9,128 244.4,128.7C244.9,129.4 243.4,129.7 243.4,129.7C243.4,129.7 243.5,130.2 243.5,130.6C240.9,129.8 238.1,129.3 235.3,129.2L235.1,102.3ZM323.5,108L321.5,108.2C322,108.9 323,109.4 323,110.1C323,110.8 322.7,111.3 323.7,111.4C324.7,111.6 325.4,111.2 325.7,112.1C326,112.9 326,114.3 325.9,115C325.7,115.7 326.1,116.7 326.9,116.7C327.7,116.7 327.9,116.9 327.9,117.4C327.9,117.9 328.9,115.5 328.9,115.5C328.1,114.8 327.4,113.3 327.4,113.3C327.4,113.3 326.6,110.9 326.6,110.6C326.6,110.3 325.4,109.9 324.9,109.8C324.3,109.5 323.5,108 323.5,108ZM307.7,108.7L306,108.9L306.1,109.9L307.8,109.7L307.7,108.7ZM308.7,109.9L308.7,110.7L309.7,110.7L309.7,109.9L308.7,109.9ZM307.4,111.5C307.4,111.5 306.4,112.8 304.4,112.2C304.4,112.2 304.1,115.4 303.1,116.1L300.8,116.1C300.8,116.1 301.3,116.9 301.8,117.5C302.3,118 303.5,119 302.3,119.7C301.1,120.4 302.5,120.2 302.5,120.2C302.5,120.2 302.3,123.7 300.8,123.2C299.3,122.7 298.8,125.1 298.8,125.7C298.8,126.4 304.7,126.6 303.8,125.7C303.3,125.2 304.5,124 304.5,124C304.5,124 308.5,124.3 309.3,124.3C310.1,124.3 310.8,124.1 310.3,123.3C309.8,122.5 308.3,122.6 308.3,122.6C308.3,122.6 306.3,123.1 304.5,122.1C302.7,121.1 304.8,120.8 305.2,120.8C305.5,120.8 307,119.6 306.4,118.8C305.7,118 306.4,116.4 306.4,117.1C306.4,117.8 308.2,118.1 308.6,117.6C308.9,117.1 308.6,115.6 307.8,115.1C307,114.6 309.3,114.3 308.6,113.4C307.7,112.6 307.4,111.5 307.4,111.5ZM310.7,116.6L310.7,117.8L311.7,117.8L311.7,116.6L310.7,116.6ZM312.9,117.2L312.4,118.2L313.3,118.7L313.8,117.7L312.9,117.2ZM329.1,118.6C328.7,118.7 329.4,120.6 329,120.9C328.5,121.2 328.2,121.9 327.7,122.4C327.2,122.9 328.7,123.6 328.7,124.1C328.7,124.6 329,127.1 329,127.1C329,127.1 330.2,127.6 330.3,128.3C330.5,129 330.3,130.3 330.8,130.5C331.3,130.7 332.3,131.3 332,132C331.7,132.7 331.7,134 331.7,134L332.4,135.5L333.7,136.3C333.7,136.3 334.2,132.3 333.4,132.1C332.6,131.9 332.9,129.6 332.9,129.6C332.9,129.6 333.7,126.4 332.4,126.4C331.1,126.4 332.1,124.7 331.2,124.2C330.4,123.7 330.9,121.3 330.5,120.7C330.2,120 330.2,119.2 329.3,118.7C329.2,118.6 329.1,118.5 329.1,118.6ZM288.7,121.8L287,122L287.1,123L288.8,122.8L288.7,121.8ZM263.5,121.9C263,121.9 262.5,122 262.5,122L259.8,122.3L259.6,123.5L261.4,123.7C261.4,123.7 262.2,124.4 262.2,124.9C262.2,125.4 263.4,125.9 264,125.9C264.7,125.9 266.5,124.6 266.5,124.6C266.5,124.6 267.3,122.2 266.7,122.4C266,122.6 264.7,123.6 264.5,122.6C264.6,122 264,121.9 263.5,121.9ZM187.4,122L203.7,138.3L202.1,138.2C201.4,139.7 199.8,138 199.8,138C199.5,137 197.1,138 197.1,138C197.1,139.9 193.9,137.2 193.9,137.2L188.1,133C184.8,130 179.8,133.8 179.6,134.7C179.7,136 178.6,136 177.5,135.8C180.2,130.8 183.5,126.2 187.4,122ZM252.9,122.4L251.9,122.6L252.2,124.1L253.2,123.9L252.9,122.4ZM258.3,122.7L254.6,122.9L254.6,123.9L258.3,123.7L258.3,122.7ZM227.1,123L227.1,124L228.4,124L228.4,123L227.1,123ZM235.6,123.2L235.5,124.2L236.7,124.4L236.8,123.4L235.6,123.2ZM237.8,123.7L237.7,124.7L238.9,124.9L239,123.9L237.8,123.7ZM224.3,124L224.2,125L225.4,125.2L225.5,124.2L224.3,124ZM251.7,124.1L251.2,124.3L251.5,125.3L252,125.1L251.7,124.1ZM292,124.5L291.5,125.7L292.4,126.1L292.9,124.9L292,124.5ZM279.6,124.7C279.6,124.7 280.6,124.9 281.4,125.1C282.2,126.1 283,127.1 283.7,128.1L281.6,127.8L280.3,127.6L277.8,127.4C275.3,129.1 274.8,131.1 274.8,131.1C273.7,133.3 271.2,131 271.2,129.4L275.6,125L276.4,125C277.4,125 279.6,124.7 279.6,124.7ZM240,125L240,126L241.3,126L241.3,125C241.4,125 240,125 240,125ZM223.2,125.2L223,126.2L224.3,126.5L224.5,125.5C224.6,125.6 223.2,125.2 223.2,125.2ZM222.8,126.6L221.8,126.8L222,127.8L223,127.6L222.8,126.6ZM242.5,126.6L241.5,126.6L241.5,127.8L242.5,127.8L242.5,126.6ZM294.8,127.1C294.2,127.1 293.4,127.2 293,127.3C292.2,127.5 292.3,128.1 293,129L295,128.7C295,128.7 296.5,128 296.2,127.5C296.1,127.1 295.5,127.1 294.8,127.1ZM283.7,128.1C284.3,129 284.9,129.9 285.5,130.7C285.3,131.1 285.2,131.7 285.4,132.3C285.9,134.8 286.7,135.8 285.1,135.8C283.4,135.8 283.1,134.5 283.1,134.5C283.1,134.5 281.8,134 281.8,134.7C281.8,135.4 281.3,136.7 281.8,137.4C282.3,138.1 281.1,139.1 280.6,138.6C280.1,138.1 278.8,136.6 279.1,136.1C279.4,135.6 276.8,132.4 279.4,131.9C282.1,131.4 279.2,129.9 280.2,129.5L281.5,128.8L282.8,128.8L283.7,128.1ZM232.8,133.1L233.1,137.1L231.3,136.5L230.1,136.5L229.6,135.5L228.6,135.3L228.6,139L229.6,139.8L230.4,140.6L232.1,140.8L232.4,142.8L236.6,143L237.1,143.8L239.6,144L244.4,148.9L244.1,150.4L243.3,150.9C243.6,152.1 241.1,151.4 241.1,151.4L241.1,152.4L242.3,152.6L243.5,153.3L245.2,150.4C247,149.2 247.9,150.9 248,151.9C248.2,152.9 247.2,152.7 247.2,152.7L247.2,155.1L248.2,155.4C249.9,157.4 247.5,158.6 247.5,158.6L247,160.3C246.5,161.8 244.7,161.5 244.7,161.5L244,162.5L242,163L245.9,163.5C246.3,162.1 247.3,161.8 247.8,162.5C248.3,163.2 248.3,164.4 248.3,164.4L249.3,164.6L249.1,166.5L250.1,166.8L250.1,172.2L251.3,173.5C253.3,172.7 253.3,174 252.3,174.7C251.3,175.4 252,178.4 252,178.4L251.2,179.2L251.2,180.6L250.2,181.3L250.2,183.2C248.5,182.4 246.5,182.7 246,183.2C244.5,182.2 241.3,182.5 241.3,183.4C242.3,184.7 240.1,185.1 240.1,185.1L238.9,186.4C239.7,188.1 238.1,188.3 238.1,188.3L238.1,191.5L236.1,193.4L236.2,196.4C235.2,196.5 234.1,196.6 233.1,196.6C225.3,196.6 218,193.8 212.2,188.7C212.3,188.6 212.4,188.6 212.5,188.4C213.3,187.1 214.7,186.9 214.7,186.9L215.2,185.7L219.7,185.9C220,184 222.2,184.7 222.2,185.6C222.2,186.4 223.9,185.8 223.9,185.8L225.1,183.9L226.9,183.9L227.1,181.9L227.9,181.4L227.9,178.4C230.6,177.6 230.2,175 230.2,175L230.9,174.2L230.6,173C229.3,172.5 229.9,171.3 230.8,171.6C231.6,171.9 229.6,170.1 229.6,170.1C228.6,170.9 227.8,169.1 227.8,169.1L225.3,169.1L225.3,166.7L225,164.5L222.5,163.3L220.7,165L220.4,167.4L220.4,168.9L218.7,169.2L218.4,173.8L217.1,174.3L217.3,176L213.7,177L213,179L211.7,179.8L211,181.8L210.2,186.6C207.9,184.1 205.9,181.4 204.5,178.4C204.8,177.2 204.8,176.1 204.8,176.1C203.3,175.4 204.1,173.1 205.8,175.1C207.5,177.1 204.8,171 204.8,171L203.5,169.8L201.8,169.6C201.5,168 201.4,166.3 201.4,164.6C201.4,163.9 201.4,163.2 201.5,162.5C202,162 202.5,162.3 202.5,162.3L205,164.3L205.2,165.3L204.2,165.8L204,167.2L204.5,169.1L205.8,169.1C206.3,166.4 209.8,166.4 210.8,168.1L211.8,165.7C209.5,164.5 211.8,162.7 212.4,163.5C213.1,164.3 214.6,161.3 214.6,161.3C214.6,161.3 215.8,162.8 214.6,160.8C213.4,158.8 215.4,157.8 215.4,157.8C215.1,155.8 217.6,156.1 217.6,156.1L217.8,153.4L215.5,153.2C215,155.6 213,153.5 214,153C215,152.5 216,151.5 216,151.5L216,150L217,149.7L217.2,148L219.7,148L221.9,147L222.4,146.2L224.7,146L228,143L227.7,141.7C225.7,141.7 227.7,140.2 227.7,140.2L228,137.7L226.2,137.7L225.9,134.1C228.1,133.4 230.4,133.1 232.8,133.1ZM334,142.9L333.8,144.2L334.8,144.3L335,142.9L334,142.9ZM333.4,147.4L332.9,148.4L333.8,148.9L334.3,147.9L333.4,147.4ZM160.9,154.1C162.5,154 163.6,154.9 163.6,154.9L165.9,154.7C166.5,155.1 166.9,155.5 167.1,156C166.9,157.6 166.7,159.1 166.7,160.7C166.5,161.1 166.3,161.4 166.3,161.4C166.1,161.7 166,162.2 165.9,162.7L159.6,162.7L159.6,162.6L157.8,162.4C155.8,161.2 156.8,156.8 156.8,156.8C158.2,154.9 159.7,154.2 160.9,154.1ZM218.6,157.3L218.3,158.1L217.5,158.1L217.3,159.5L218.3,159.5L218.5,160.5L217.8,161.2L217.5,162L216.2,162.3L213.2,165.2L213,166.5L212.2,167.7L211.2,170.2L207.7,170.4L207,173.4L207.5,175.9L210.5,177.1L210.8,175.4L211.8,174.9L212,173.2L212.7,172L213.7,170.8L214,169.4L215.7,168.4L217.7,168.1L218.5,167.1L218.8,165.1L218.9,163.6L219.6,162.6L221.6,161.8L221.6,158.6L220.6,158.6L220.4,157.4L218.6,157.3ZM322.9,158.3L322.7,159.3L324.5,159.6L324.7,158.6L322.9,158.3ZM318.8,159.7L318.3,160L317.1,160.7L316,160L315.5,160.8L316.8,161.6L317.1,161.8L317.3,161.7L318.3,161.1L318.4,161.4L319.3,161L319,160.2L318.8,159.7ZM333.3,166.8L360.2,166.8C359.9,185.3 355.7,202.8 348.3,218.6C342.3,231.5 334.2,243.2 324.4,253.3L323.7,252.6C323.6,250.7 323.5,248.3 323.5,248.3L322.7,247.5L322.5,243.3C323.2,241.1 319.3,237.9 319,238.6C318.7,239.3 316.5,238.8 316.5,239.4C316.5,240.1 315.2,243.4 315.8,244.6C315.8,244.7 315.8,244.7 315.9,244.8L305.4,234.3C313.6,225.8 320,216.2 324.7,205.7C330,193.5 333,180.4 333.3,166.8ZM364.2,166.8L393.9,166.8C393.6,191.1 387.9,214.1 377.9,234.7C370.3,250.4 360.2,264.7 348.2,277L327.2,256C337.5,245.4 345.7,233.4 351.8,220.4C359.6,203.8 363.9,185.6 364.2,166.8ZM306,166.8L329.3,166.8C329,179.9 326.1,192.4 321.1,203.7C316.6,213.9 310.3,223.2 302.7,231.2C302.4,227.8 301.6,224.1 301.6,224.1L300.3,223.4L300.6,219.3L298.8,219.3L295.8,223.2L295.5,224.3L293.8,222.6L294.7,221.7L294.5,219.7L295.7,218.7L295.7,217L296.7,216.7L296.9,213L297.7,212.8L297.7,204.7L295.2,202.3C295,203.1 292.4,203.1 292.4,203.1C292.4,203.1 291.7,204.3 291.2,204.3C290.7,204.3 291.9,205.8 291.5,206.8C291.2,207.8 289.8,207.8 289.8,207.8L287.3,208.5L286.6,209.3L284,209.3L283.8,207.8C284.1,207.5 284.3,207.1 284.6,206.8L286.7,206.2L288.4,205.4L289.2,203.7C289.4,202 291.4,202.2 291.4,202.2C291.4,202.2 295.2,199 295.4,197.5C295.6,196 296.9,191.8 299.2,191.8L303.5,191.8C305.2,191.1 304.7,188.9 304.7,188.9L306.9,188.6L307.2,189.8C307.2,189.8 310.2,190.1 310.5,189.6C310.8,189.1 311.5,187.9 312.3,188.4C313.1,188.9 315.8,187.2 315.8,187.2C316,186 320.1,186.5 320.1,186.5L320.6,185C320.6,185 317.8,181.1 317.3,181.1C316.8,181.1 314.1,178.7 313.8,179.6C311.1,178.9 311.3,175.2 311.3,175.2L310.3,172.8C310.3,171.4 307.8,168.6 307.3,168.9C306.2,168.3 305.9,167.5 306,166.8ZM136.9,166.8L148.6,166.8L148.7,167.7L146.2,170.4L146.5,173.1L145,173.6L144.7,174.8L144,178.3L145.7,178.5C146.5,178.2 146.4,180.7 145.7,181C145,181.3 143.2,182 144.2,182.7C145.2,183.4 141.5,183.2 141.5,182.2C141.5,181.2 139.5,180.3 139,180.7C138.7,180.9 138.3,180.4 138,179.9C137.4,175.6 137,171.2 136.9,166.8ZM154.1,166.8L154.9,166.8C155.3,166.9 155.7,167.1 155.7,167.1L158,167.3L158.2,166.9L166.1,166.9L166.8,171.2L164.6,173.1C162.8,174.1 162.8,176.5 164.8,177C166.1,177.2 165.6,180.4 163.6,178.2C160.6,178.2 165.3,180.9 163.9,180.2C166.9,181.7 166.2,178.9 166.2,178.9L167.7,177.7C168.3,181 169.2,184.3 170.3,187.4C173.4,196 178.2,203.8 184.5,210.6L163.5,231.6C162.1,230.2 160.8,228.7 159.6,227.2C159.9,226.2 160.5,225.1 160.5,225.1C162.7,223.7 160,221.6 160,221.6C160.3,219.6 158.8,217.2 158.8,217.2C155.8,215.2 156.6,211.3 156.6,211.3L156.6,208.6C154.1,206.2 157.6,205.9 157.6,205.9C158.8,203.9 156.8,202.4 156.8,202.4L156.6,200.2L153.9,199.9L153.6,192L147.6,183.4C146.4,183.1 147.3,181 147.3,181C148.8,180.2 147,178.1 147,178.1L146.8,174.4L150.3,174.1L151.1,172.8L152.8,172.8L152.6,168.4C153.1,167.2 153.6,166.9 154.1,166.8ZM195.6,166.8L197.5,166.8C197.6,168 197.7,169.2 197.9,170.3L196.9,170.6L196.6,169.9L196.1,171.8L193.1,171.8L192.9,169.8L194.7,169.3L195.4,168.3L195.6,166.8ZM244.9,169.1C244.6,169.1 244.3,169.3 244.1,169.9L244.1,172.1C244.1,172.1 246.4,175.8 247.3,176.3C248.1,176.8 249.5,175.7 248.6,175.1C246.1,173.4 246.3,171.2 245.6,169.7C245.4,169.4 245.2,169.1 244.9,169.1ZM158,170.6L158.2,171.8L159,171.8C160.3,174.2 159.2,179.9 159.2,179.9C159.2,179.9 157.2,180.1 156.9,179.1C156.6,178.1 155.7,181.3 156.4,181.8C157.1,182.3 159.4,181.8 159.6,183.7C159.8,185.6 161.1,182.5 161.1,182.5L161.1,171L158,170.6ZM237.9,174L234.9,176.2C236.4,176.4 236.6,177.9 236.7,178.6C237.1,180.1 237,176.2 237.7,176.4C238.4,176.5 237.9,174 237.9,174ZM171.4,175.3C172.8,175.8 174.4,178.1 174.4,178.5C174.4,179 181,178.7 181,178.7C182.8,179.9 183.5,182.9 183.5,182.9C185.3,180.5 189.2,182.7 186.3,184.1C189,185.8 189,187.3 189,187.3C191.2,186.6 191.2,188.3 191.2,188.8C191.2,189.3 191.9,186.3 191.9,186.3C189.4,184.4 195.2,183.8 193.6,187.1L192.6,188.6L194.3,189.9L194.5,193.8C198.2,193.5 197.2,188.9 197.2,188.9L198.9,188.6C198.9,187.1 200.1,187.9 200.1,187.9C199.3,183.9 200.9,182.2 201.9,181.6C203.2,184.1 204.8,186.4 206.7,188.5L187.6,207.6C181.7,201.3 177.3,194.1 174.4,186.2C173,182.7 172.1,179.1 171.4,175.3ZM322,179.3C320.6,179.2 318.9,180.2 319.4,180.9C320.4,182.2 322.1,181.6 322.7,181.7C323.4,181.9 324,182.2 323.4,180.2C323.2,179.6 322.6,179.3 322,179.3ZM163.9,181.6C163.5,181.6 163.2,181.9 163.2,182.3C163.2,182.7 163.5,183 163.9,183C164.3,183 164.6,182.7 164.6,182.3C164.7,182 164.3,181.6 163.9,181.6ZM162.1,183.9L159.6,185.6L157.9,184.6L157.9,188.6L160.6,192.1L161.6,189.7L161.9,188.2L160.7,187.7L160.9,185.2L161.9,185L162.1,183.9ZM223.6,188.1L222.1,188.3L222.3,190.7L223.3,191.5L225.1,192C225.1,192 227.6,191.3 227.8,189.3L224,189.1L223.6,188.1ZM244.6,189.4C246,189.4 245.7,192.8 245.6,193.9C244.6,194.3 243.6,194.7 242.6,195L242.6,191.3L244.3,189.4L244.6,189.4ZM209.4,191.4C215.2,196.6 222.4,199.7 230.1,200.3L230.1,200.4C230.1,200.4 229.5,201.9 230.2,202.2C230.9,202.4 230.7,202.6 231.1,203L230.7,203.9C230.1,203.1 229.7,204.5 230.1,204.9C230.5,205.3 229.2,205 229.2,205.5C229.2,206 228.8,206.3 229.2,206.5C229.6,206.8 229.1,206.9 228.6,207.3C228.1,207.7 230.7,207.8 230.7,207.8C230.7,207.8 230.2,206.8 230.8,206.8L231.1,206.8L231.1,208.5C230.9,208.4 230.7,208.4 230.4,208.3L230.4,209.5L229.1,209.7L230.3,211L231.2,211.1L231.2,214.1C231.2,216.3 225.7,214.8 225.2,214.3L225,217.3L224,217.5L224.2,219.5L224,222.4L225.8,222.1L225.8,223.3L230.3,223.5L231.2,222.6L231.2,225.9L228.2,226.2L226.9,226.9L226.4,225.9L225.1,225.9L224.3,227C220.4,226.4 216.5,225.5 212.8,224.2C204.6,221.4 197,216.8 190.5,210.7L209.4,191.4ZM270.4,193.6C270.8,193.6 271.1,193.8 271,194.4C270.5,195.9 271,196.6 271,196.6C273.2,194.6 275,196.8 274.8,197.3C274.6,197.8 276,198.3 276.8,197.8C277.6,197.3 278.6,199.3 278.3,200.3C278,201.3 275,201.1 274.8,200.1C274.6,199.1 274.1,199.4 273.8,199.9C273.5,200.3 272.4,200.6 271.6,200.4L270.9,199.7C271,199.5 271.1,199.3 270.9,199.1C270.7,198.9 270.4,198.9 270,198.9L268.5,197.4C268.5,196.4 268.8,195 268.7,194.6C268.6,194.1 269.7,193.6 270.4,193.6ZM162.3,194.2L161.1,194.4L160.9,195.8L162.2,196L162.3,194.2ZM370.1,195.7C369.4,195.7 368.6,196.1 368.1,196.4L368.7,197.2C369.3,196.8 370.2,196.6 370.3,196.7L370.3,196.6L371.3,196.4C371.2,196.1 371.1,195.8 370.8,195.7L370.1,195.7ZM162.8,197.4C162.4,197.4 162.1,197.7 162.1,198.1C162.1,198.5 162.4,198.8 162.8,198.8C163.2,198.8 163.5,198.5 163.5,198.1C163.5,197.7 163.1,197.4 162.8,197.4ZM245.6,198.2C245.6,198.6 245.8,199.1 245.8,199.1L246.6,199.4L245.1,200.6L243.8,202.1L242.1,201.6L240.1,201.4L239.4,200.2L238.2,200L238,202.4L237.2,203.4L235.2,205.4C237.3,205.4 235.9,206.5 234.9,207L234.9,200.2C237,200.1 239.2,199.8 241.2,199.3C241.4,199.5 241.5,199.6 241.5,199.6L243,199.6L243.1,198.8C244.1,198.7 244.9,198.5 245.6,198.2ZM163.9,200.9C163.5,200.9 163.2,201.2 163.2,201.6C163.2,202 163.5,202.3 163.9,202.3C164.3,202.3 164.6,202 164.6,201.6C164.6,201.2 164.3,200.9 163.9,200.9ZM226.7,201.4C225.9,201.4 225.2,204 224.8,204.6C224.8,204.6 225.2,206 225.9,205.9C226.6,205.8 227.1,205.4 227.8,205.3C228.4,205.2 228.7,204.2 228.9,203.1C229.1,202.1 228.7,201.6 228.7,201.6C228.7,201.6 228.1,202.6 227.1,201.6C227,201.5 226.9,201.4 226.7,201.4ZM160.8,202.8L159.4,203L159.4,204.2L160.8,204L160.8,202.8ZM260.9,202.8L262.1,202.8L262.3,203.6L267.4,204.1L267.6,204.1C269.6,205.3 268.6,206.8 267.9,207.1C267.2,207.4 266.1,207.4 266.1,207.4L265.8,208.1L261.5,208.4L261.2,210.1C259,209.8 258.2,212.1 258.7,213.3C259.2,214.5 258.7,215.5 258.7,215.5L260.5,216.3L262.8,215.6C263.1,213.9 264.6,213.6 266,212.6C267.3,211.6 269.5,214.5 268.8,215.8C268.7,216 268.7,216.1 268.6,216.2C266.1,217.9 263.4,219.5 260.6,220.9C256.2,223 251.6,224.7 246.7,225.7C246.6,225.6 246.5,225.6 246.5,225.6L244.7,225.1L244.5,222.6C244.2,220.9 241,220.9 241.2,222.1C241.4,223.3 235.3,222.6 235.2,222.6L235.2,218L236.9,216.2L240.7,215.4C241,213.7 242.7,215.7 242.7,215.7C244.4,215.5 244.7,216.7 244.7,216.7L246.9,217C248.7,217.5 247.6,217.7 247.7,218.4C247.9,219.4 248.7,219.1 248.7,219.1L249,216.9L250,217.1L249,215.9L247.2,215.1L245.2,214.3C243.9,212.4 245.5,212.8 246.9,213L249.1,213C249.1,213 251.6,216.4 251.6,217.2C251.6,218 252.8,218.2 252.8,218.2L254.3,218L254.8,219.2L256.3,219.2L256.8,220.2L259.8,220.2L260,218.7L257.2,218.2L257,216.5L255,216C254.3,213.1 255.5,212.3 256.3,213.6L257.3,213.8L257,211.3L258.2,211L257.9,207.5L256.9,207.2L256.9,206L261.1,206.2C260.4,203.8 260.9,202.8 260.9,202.8ZM381.2,210.5L380.3,211C380.4,211.2 380.4,211.5 380.5,211.7C380.5,212 380.6,212.3 380.8,212.5C381,212.6 381.2,212.7 381.5,212.6L381.3,211.6C381.4,211.6 381.5,211.7 381.5,211.8L381.5,211.6C381.4,211.3 381.4,210.9 381.2,210.5ZM380.2,212.4L379.2,212.6C379.5,213.6 379.8,214.6 379.8,214.7L380.7,214.3C380.8,214.3 380.4,213.3 380.2,212.4ZM302.2,213.4L302.2,216.6L303.4,216.6L303.4,213.4L302.2,213.4ZM266.3,214.2L265,215L265.5,215.9L266.8,215.1L266.3,214.2ZM374.6,216.5C374.5,217.3 374.7,218.3 375.5,218.4L375.7,217.4C375.6,217.3 375.5,216.9 375.6,216.5L374.6,216.5ZM241.4,218.3L241.4,220.3L241.4,218.3ZM374.1,218.4C373.8,218.4 373.4,218.7 373,219C372,219.6 372.4,222.2 373,221.5C373.6,220.9 374.4,221.5 374.5,219.6C374.6,218.6 374.4,218.4 374.1,218.4ZM270.7,219.7L274.6,221.7C275.1,222.4 277.3,222.2 277.3,222.2L278,223C278,223 279.3,222.8 280.2,223.8C281,224.8 285.4,224 285.4,224L286.6,225L288.4,225.7L291.5,225.8L293.4,227.7C290.4,229.1 284.3,228.6 283.9,228.2C283.4,227.7 279.9,226.2 279.9,226.2C279.9,226.2 277.2,224 276.7,224.7C276.2,225.4 273.9,223.9 273.9,224.4C273.9,224.9 271.7,223.2 271.7,223.2L268.4,222L270.9,221.5L270.5,219.9C270.5,219.8 270.6,219.8 270.7,219.7ZM246.7,220.2L245.5,221.1L246,221.6L246.5,222.4L247.7,220.5L246.7,220.2ZM90.2,229.6L90.2,231.3L91.5,231.3L91.5,233.5L92.5,233.5L92.3,231L91,230.5L91,229.7L90.2,229.6ZM333,230.5L332.9,232L334.5,232.1L334.6,230.7L333,230.5ZM331.6,234L331.3,235C331.4,235 331.5,235.1 331.6,235.2L331.8,236.1C331.7,236.2 331.6,236.3 331.6,236.4L332.3,237.1C332.8,236.5 333,235.9 332.9,235.4C332.7,234.4 331.8,234.1 331.6,234ZM302.6,237L309.9,244.3C309.6,245.5 308.4,246.2 307.8,245.8C307.1,245.3 308.6,246.6 309,247.3C309.3,248 310.3,248 310.7,247.3C310.9,246.8 310.9,246 311,245.3L314.4,248.7C314,249.6 313.5,250.4 313.7,251L315.2,251.7L315.4,254.6C316.5,255.7 319,255.7 321,255.4L321.7,256.1C315.6,262.1 308.8,267.4 301.6,272L301.6,270.4C304.6,268.2 304.8,264.3 301.9,264C299.8,263.7 300.7,261.5 302.7,261.1L303.9,260.6L303.9,259L307.7,255.5L307.7,252.8L299.4,245.9C297.7,245.3 297.6,243.2 298.2,241.2C299.6,239.8 301.1,238.5 302.6,237ZM98.5,237.4L99.7,240.4L100.4,241.9L101.7,243.8L103.5,245.5L104.2,244.3L103,241.8L101.8,241L101,238.6L98.5,237.4ZM139.5,247.1C141,247.1 142.9,248.8 143.2,249.5C143.3,249.9 143.8,250.4 144.3,250.8L141.8,253.3C140.3,251.7 138.8,250.1 137.3,248.4L138,248.4C138.3,247.5 138.9,247.1 139.5,247.1ZM238,256.5C239,256.6 240.1,256.8 240.8,257.3C242.6,258.6 245.1,257.8 245.1,257.8L246.9,260C243,260.6 239.1,260.9 235.1,261L235.1,257C235.7,256.6 236.8,256.4 238,256.5ZM324.4,258.9L345.4,279.9C333.7,291.3 320.3,300.9 305.5,308.4C284.3,319.1 260.4,325.4 235.1,325.7L235.1,296C247.2,295.8 259.1,294 270.4,290.6L273.3,291.5L274.1,294.2L275.4,294L276.4,293.2L280.4,293L282.4,291.1L284.6,290.8L300.3,277.5C308.9,272.2 317,266 324.4,258.9ZM248.9,263.8L249.2,264.6L252,265.4L254,265.9L254.7,268.8L256.2,269L256.7,270.9C258.5,272.2 256.2,275.1 256.2,275.1L256.2,278.8L257.5,279.5L257.3,280.9L259.5,283.1L262,283.3L266.1,287.7C256.2,290.4 245.8,291.9 235,292.1L235,265C239.8,264.9 244.4,264.5 248.9,263.8ZM208.7,266.5L207.2,267.7L207.7,268.1L208.9,268.9L209.5,268.1L208.9,267.6L209.4,267.2L208.7,266.5ZM220.5,278.6L220.1,279.5L221.1,280L220.8,280.3L221.5,281L222.8,279.7L222.2,279.4L220.5,278.6ZM136.4,287.1L137.7,289.1L137.9,290.6L139.6,291.1L140.3,292.1L141.5,291.4L140.7,289.2L138.5,287.3L136.4,287.1Z" style="fill:rgb(255,0,0);fill-rule:nonzero;"/>
    </g>
</svg>
