<?xml version="1.0" encoding="UTF-8" standalone="no"?>
<!DOCTYPE svg PUBLIC "-//W3C//DTD SVG 1.1//EN" "http://www.w3.org/Graphics/SVG/1.1/DTD/svg11.dtd">
<svg width="100%" height="100%" viewBox="0 0 847 467" version="1.1" xmlns="http://www.w3.org/2000/svg" xmlns:xlink="http://www.w3.org/1999/xlink" xml:space="preserve" xmlns:serif="http://www.serif.com/" style="fill-rule:evenodd;clip-rule:evenodd;stroke-linejoin:round;stroke-miterlimit:2;">
    <g transform="matrix(1,0,0,1,-493.979,-345.974)">
        <path d="M635.118,345.974L1117.01,345.974L1203.71,346.607L1270.8,368.126L1291.06,388.379L1297.39,388.379L1317.01,351.037C1319.12,347.662 1322.7,345.974 1327.77,345.974C1333.25,346.818 1337.05,349.138 1339.16,352.936L1340.42,360.531L1318.27,490.278C1317.85,493.231 1315.85,495.341 1312.26,496.607C1308.67,497.873 1306.46,498.505 1305.61,498.505C1303.5,498.505 1300.97,497.556 1298.02,495.657C1295.07,493.759 1293.38,491.122 1292.96,487.746L1292.96,445.974L1273.34,408.632L1256.25,391.543L1197.39,372.556L1131.14,372.556L1111.33,490.278C1110.91,493.231 1108.9,495.341 1105.32,496.607C1101.73,497.873 1099.51,498.505 1098.67,498.505C1096.56,498.505 1094.03,497.556 1091.08,495.657C1088.12,493.759 1086.43,491.122 1086.01,487.746L1085.38,423.189L1076.52,397.873L1068.1,389.113L1064.47,390.307L1046.75,425.167L1046.75,461.292L1064.52,495.519L1188.32,557.633L1234.66,604.538L1256.88,649.534L1256.88,718.62L1233.42,765.525L1209.95,788.982L1204.88,791.514L1139.57,812.43L1052.07,812.43L985.489,789.645L965.829,770.657L958.225,770.657L939.831,807.366C937.721,810.742 934.128,812.43 929.051,812.43C923.981,812.43 919.966,810.32 917.006,806.1C916.584,805.257 916.373,801.248 916.373,794.075L937.259,668.759L939.177,655.468L939.177,613.695L928.417,592.176L906.898,582.05L861.329,582.05L806.898,771.29L811.329,780.151L829.683,785.847L844.873,785.847C852.468,785.847 857.531,788.379 860.063,793.442C860.907,795.974 861.329,797.873 861.329,799.138C861.329,802.092 860.274,805.046 858.164,807.999C856.054,810.953 852.468,812.43 847.405,812.43L675.886,812.43L675.774,812.391C675.317,812.417 674.845,812.43 674.358,812.43L502.839,812.43C497.776,810.742 494.823,807.155 493.979,801.67C493.979,796.607 495.35,792.704 498.093,789.961C500.835,787.219 505.793,785.847 512.966,785.847L527.523,785.847L552.206,776.986L566.763,761.797L673.093,387.746L668.662,378.252L650.941,373.189L635.751,373.189C628.156,373.189 623.093,370.657 620.561,365.594C619.717,364.328 619.295,362.43 619.295,359.898C619.295,355.678 620.35,352.725 622.46,351.037C625.413,347.662 629.633,345.974 635.118,345.974ZM808.797,372.556L793.979,373.189L779.422,373.189L754.738,381.417L740.181,396.607L633.852,771.29L638.282,780.151L656.004,785.847L700.569,785.847L725.253,776.986L739.81,761.797L846.772,387.746L842.341,378.252L823.987,372.556L808.797,372.556ZM1004.63,498.715L964.493,659.265L963.209,670.657L963.842,713.695L982.196,749.771L999.285,766.86L1058.14,785.847L1137.89,785.847L1191.69,767.493L1209.41,733.316L1209.41,676.354L1191.06,640.911L1067.64,579.518L1021.44,533.316L1004.63,498.715ZM1041.4,375.278L1032.85,372.556L953.101,372.556L928.417,380.814L913.86,396.053L868.291,555.468L909.43,555.468L934.113,547.873L963.227,518.759L984.113,476.354C987.067,473.4 990.443,471.923 994.24,471.923C995.928,471.923 997.194,472.134 998.038,472.556C998.674,472.747 999.281,472.967 999.86,473.216C999.772,459.307 999.58,441.576 999.285,420.024L1002.45,413.695L1041.4,375.278Z" style="fill:rgb(255,0,0);fill-rule:nonzero;"/>
    </g>
</svg>
