<?xml version="1.0" encoding="UTF-8" standalone="no"?><!DOCTYPE svg PUBLIC "-//W3C//DTD SVG 1.1//EN" "http://www.w3.org/Graphics/SVG/1.1/DTD/svg11.dtd"><svg width="100%" height="100%" viewBox="0 0 2223 1234" version="1.1" xmlns="http://www.w3.org/2000/svg" xmlns:xlink="http://www.w3.org/1999/xlink" xml:space="preserve" xmlns:serif="http://www.serif.com/" style="fill-rule:evenodd;clip-rule:evenodd;stroke-linejoin:round;stroke-miterlimit:2;"><path d="M1769.52,580.961c-6.164,3.693 -8.62,2.461 -7.385,-4.923c15.99,-73.852 55.384,-121.854 130.464,-157.55c6.148,-3.692 6.148,-4.923 -1.236,-4.923l-224.005,0c-7.384,0 -8.62,2.462 -3.692,8.616c225.241,264.633 -279.403,512.033 -194.482,212.937c1.236,-6.155 4.928,-14.771 8.62,-23.386l152.632,-393.871c2.457,-4.924 4.913,-12.31 8.605,-22.155c30.774,-87.391 73.86,-132.932 139.084,-188.321c6.164,-4.923 4.928,-7.385 -2.457,-7.385l-222.784,0c-7.384,0 -8.62,3.693 -3.692,8.616c81.244,76.313 70.152,112.006 44.307,187.09c-2.457,7.384 -6.149,14.769 -8.605,22.155l-129.243,311.405c0,0 -39.394,116.93 -146.468,206.782c-259.714,217.859 -395.107,-283.095 -100.941,-283.095c113.238,0 169.857,18.462 265.87,89.852l27.081,-66.466c-103.397,-48.004 -168.637,-62.774 -292.951,-62.774l-232.625,0c-7.385,0 -9.846,3.692 -4.924,9.847c136.624,179.704 -237.553,372.948 -349.56,372.948l-131.701,0c-114.469,0 -226.476,-110.778 -189.551,-196.936l152.626,-360.64c48.002,-113.238 130.47,-171.087 209.244,-231.399c6.154,-4.923 4.923,-7.385 -2.461,-7.385l-318.791,0c-7.385,0 -9.846,4.923 -6.154,11.078c22.155,38.157 93.545,168.626 68.927,227.706l-146.471,347.101c-49.233,116.93 -209.243,216.628 -252.323,241.245c-6.155,3.692 -6.155,6.155 1.231,6.155l818.514,0c7.385,0 9.847,4.923 7.385,11.078l-67.697,148.932c-3.693,7.385 -7.385,16.002 -11.077,22.155c-51.696,92.315 -110.777,157.549 -227.708,212.937c-6.153,3.692 -6.153,4.924 1.231,4.924l279.404,0c7.384,0 8.615,-2.463 2.461,-7.386c-45.541,-38.155 -76.313,-76.312 -36.925,-169.856c2.46,-6.155 7.384,-13.541 11.078,-22.156l205.551,-392.64c3.692,-6.155 6.153,-6.155 7.384,1.231c23.387,150.163 115.701,190.781 210.475,190.781l1010.52,0c7.384,0 8.62,-2.463 2.472,-7.385c-39.394,-29.54 -82.481,-67.697 -68.932,-140.318l19.697,-108.314c14.769,-82.467 -71.388,-142.778 -162.473,-161.241c-7.384,-1.231 -12.313,2.461 -12.313,9.847l0,11.077c0,7.386 4.929,13.539 12.313,16.002c75.08,23.386 146.468,55.388 124.315,148.932c-33.23,140.316 -124.315,194.475 -291.716,194.475c-40.614,0 -150.16,-2.463 -113.238,-110.778c33.23,-97.236 203.087,-171.087 404.954,-33.233l8.605,-43.078c-55.384,-51.696 -256.014,-105.854 -370.473,-28.31m-945.297,-158.78c4.924,-4.924 3.693,-8.616 -3.693,-8.616l-222.783,0c-7.386,0 -8.616,2.462 -1.231,4.923c76.313,32.002 140.316,75.082 167.395,153.856l55.389,155.087l36.925,-20.924l-59.081,-142.779c-30.771,-77.542 -8.616,-105.852 27.079,-141.547m857.904,-49.234l195.703,0c-43.086,-56.619 -43.086,-56.619 57.855,-125.546l-198.175,0c41.851,68.927 41.851,68.927 -55.383,125.546" style="fill:#FF0000;fill-rule:nonzero;"/></svg>