<?xml version="1.0" encoding="UTF-8" standalone="no"?>
<!DOCTYPE svg PUBLIC "-//W3C//DTD SVG 1.1//EN" "http://www.w3.org/Graphics/SVG/1.1/DTD/svg11.dtd">
<svg width="100%" height="100%" viewBox="0 0 2059 465" version="1.1" xmlns="http://www.w3.org/2000/svg" xmlns:xlink="http://www.w3.org/1999/xlink" xml:space="preserve" xmlns:serif="http://www.serif.com/" style="fill-rule:evenodd;clip-rule:evenodd;stroke-linejoin:round;stroke-miterlimit:2;">
    <g id="Layer2" transform="matrix(1,0,0,1,-213.521,-380.744)">
        <g id="Fourth" transform="matrix(1,0,0,1,-396,-52)">
            <g transform="matrix(288,0,0,288,655.901,872.792)">
                <path d="M0.047,-0.667L0.047,-0L0.25,-0L0.251,-0.257L0.728,-0.257L0.728,-0.41L0.251,-0.41L0.25,-0.51L0.752,-0.51L0.752,-0.667L0.047,-0.667Z" style="fill:rgb(255,0,0);fill-rule:nonzero;"/>
            </g>
            <g transform="matrix(288,0,0,288,875.933,872.792)">
                <path d="M0.491,-0.677C0.212,-0.677 0.15,-0.67 0.099,-0.631C0.048,-0.592 0.033,-0.524 0.033,-0.338C0.033,-0.142 0.047,-0.076 0.099,-0.036C0.15,0.003 0.212,0.01 0.493,0.01C0.769,0.01 0.832,0.003 0.883,-0.036C0.934,-0.075 0.949,-0.142 0.949,-0.334C0.949,-0.525 0.934,-0.592 0.883,-0.631C0.832,-0.67 0.77,-0.677 0.491,-0.677ZM0.491,-0.504C0.677,-0.504 0.699,-0.501 0.722,-0.474C0.74,-0.452 0.746,-0.414 0.746,-0.315C0.746,-0.234 0.739,-0.205 0.716,-0.187C0.689,-0.167 0.656,-0.163 0.493,-0.163C0.325,-0.163 0.293,-0.166 0.266,-0.187C0.242,-0.206 0.236,-0.233 0.236,-0.316C0.236,-0.401 0.24,-0.439 0.252,-0.462C0.272,-0.501 0.291,-0.504 0.491,-0.504Z" style="fill:rgb(255,0,0);fill-rule:nonzero;"/>
            </g>
            <g transform="matrix(288,0,0,288,1158.75,872.792)">
                <path d="M0.043,-0.667L0.043,-0.36C0.044,-0.252 0.044,-0.252 0.045,-0.23C0.05,-0.132 0.061,-0.091 0.094,-0.057C0.144,-0.004 0.224,0.01 0.479,0.01C0.634,0.01 0.701,0.006 0.761,-0.006C0.837,-0.022 0.888,-0.075 0.899,-0.151C0.905,-0.198 0.906,-0.209 0.909,-0.36L0.909,-0.667L0.706,-0.667L0.706,-0.36C0.706,-0.346 0.705,-0.314 0.704,-0.291C0.701,-0.228 0.696,-0.21 0.68,-0.193C0.658,-0.169 0.616,-0.163 0.476,-0.163C0.303,-0.163 0.264,-0.174 0.253,-0.227C0.248,-0.254 0.248,-0.255 0.246,-0.36L0.246,-0.667L0.043,-0.667Z" style="fill:rgb(255,0,0);fill-rule:nonzero;"/>
            </g>
            <g transform="matrix(288,0,0,288,1433.21,872.792)">
                <path d="M0.047,-0L0.25,-0L0.251,-0.253L0.538,-0.253C0.622,-0.253 0.637,-0.251 0.651,-0.235C0.667,-0.218 0.671,-0.194 0.671,-0.119L0.67,-0L0.87,-0L0.871,-0.146C0.875,-0.3 0.857,-0.33 0.754,-0.342C0.794,-0.348 0.813,-0.355 0.832,-0.37C0.868,-0.397 0.878,-0.42 0.878,-0.46C0.878,-0.507 0.862,-0.61 0.811,-0.641C0.775,-0.663 0.726,-0.667 0.538,-0.667L0.047,-0.667L0.047,-0ZM0.251,-0.42L0.25,-0.5L0.536,-0.5C0.628,-0.499 0.631,-0.499 0.645,-0.493C0.666,-0.484 0.675,-0.47 0.675,-0.46C0.675,-0.453 0.666,-0.439 0.653,-0.432C0.638,-0.424 0.639,-0.422 0.537,-0.42L0.251,-0.42Z" style="fill:rgb(255,0,0);fill-rule:nonzero;"/>
            </g>
            <g transform="matrix(288,0,0,288,1698.17,872.792)">
                <path d="M0,-0.667L0,-0.497L0.297,-0.497L0.297,-0L0.51,-0L0.51,-0.497L0.807,-0.497L0.807,-0.667L0,-0.667Z" style="fill:rgb(255,0,0);fill-rule:nonzero;"/>
            </g>
            <g transform="matrix(288,0,0,288,1930.59,872.792)">
                <path d="M0.047,-0.667L0.047,-0L0.26,-0L0.26,-0.241L0.719,-0.241L0.719,-0L0.932,-0L0.932,-0.667L0.719,-0.667L0.719,-0.428L0.26,-0.428L0.26,-0.667L0.047,-0.667Z" style="fill:rgb(255,0,0);fill-rule:nonzero;"/>
            </g>
        </g>
        <g id="Sharp" transform="matrix(1,0,0,1,-391,15)">
            <g transform="matrix(288,0,0,288,657.813,582.792)">
                <path d="M0.023,-0.221L0.023,-0.189C0.023,-0.097 0.038,-0.058 0.084,-0.029C0.131,0.001 0.212,0.01 0.419,0.01C0.618,0.01 0.702,0.005 0.742,-0.01C0.811,-0.036 0.839,-0.093 0.839,-0.209C0.839,-0.302 0.822,-0.347 0.776,-0.377C0.733,-0.404 0.69,-0.409 0.47,-0.416C0.329,-0.42 0.274,-0.423 0.256,-0.428C0.235,-0.433 0.226,-0.446 0.226,-0.471C0.226,-0.52 0.24,-0.524 0.412,-0.524C0.556,-0.524 0.581,-0.522 0.598,-0.512C0.613,-0.503 0.616,-0.494 0.618,-0.457L0.814,-0.457C0.815,-0.47 0.815,-0.484 0.815,-0.488C0.815,-0.567 0.799,-0.609 0.759,-0.636C0.712,-0.668 0.642,-0.677 0.448,-0.677C0.288,-0.677 0.196,-0.673 0.157,-0.665C0.065,-0.645 0.029,-0.588 0.029,-0.461C0.029,-0.314 0.075,-0.272 0.24,-0.267L0.294,-0.265L0.402,-0.26L0.562,-0.254C0.627,-0.253 0.642,-0.243 0.642,-0.203C0.642,-0.144 0.642,-0.144 0.424,-0.144C0.281,-0.144 0.259,-0.146 0.24,-0.158C0.224,-0.168 0.22,-0.181 0.22,-0.221L0.023,-0.221Z" style="fill:rgb(255,0,0);fill-rule:nonzero;"/>
            </g>
            <g transform="matrix(288,0,0,288,957.081,583.818)">
                <path d="M0.047,-0.667L0.047,-0L0.26,-0L0.26,-0.241L0.719,-0.241L0.719,-0L0.932,-0L0.932,-0.667L0.719,-0.667L0.719,-0.428L0.26,-0.428L0.26,-0.667L0.047,-0.667Z" style="fill:rgb(255,0,0);fill-rule:nonzero;"/>
            </g>
            <g transform="matrix(1,0,0,1,1,-15)">
                <path d="M1387.4,523.218L1424.55,450.318L1436.07,450.318L1473.22,523.218L1493.67,565.23L1510.09,597.774L1576.61,597.774L1476.1,405.714L1385.09,405.714L1283.43,597.774L1350.25,597.774L1366.66,565.23" style="fill:rgb(255,0,0);"/>
            </g>
            <g transform="matrix(288,0,0,288,1635.27,583.818)">
                <path d="M0.047,-0L0.25,-0L0.251,-0.253L0.538,-0.253C0.622,-0.253 0.637,-0.251 0.651,-0.235C0.667,-0.218 0.671,-0.194 0.671,-0.119L0.67,-0L0.87,-0L0.871,-0.146C0.875,-0.3 0.857,-0.33 0.754,-0.342C0.794,-0.348 0.813,-0.355 0.832,-0.37C0.868,-0.397 0.878,-0.42 0.878,-0.46C0.878,-0.507 0.862,-0.61 0.811,-0.641C0.775,-0.663 0.726,-0.667 0.538,-0.667L0.047,-0.667L0.047,-0ZM0.251,-0.42L0.25,-0.5L0.536,-0.5C0.628,-0.499 0.631,-0.499 0.645,-0.493C0.666,-0.484 0.675,-0.47 0.675,-0.46C0.675,-0.453 0.666,-0.439 0.653,-0.432C0.638,-0.424 0.639,-0.422 0.537,-0.42L0.251,-0.42Z" style="fill:rgb(255,0,0);fill-rule:nonzero;"/>
            </g>
            <g transform="matrix(288,0,0,288,1950.07,582.792)">
                <path d="M0.047,-0L0.25,-0L0.25,-0.246L0.506,-0.246C0.65,-0.246 0.695,-0.25 0.74,-0.265C0.82,-0.294 0.847,-0.338 0.847,-0.458C0.847,-0.563 0.811,-0.642 0.685,-0.661C0.648,-0.666 0.63,-0.667 0.504,-0.667L0.047,-0.667L0.047,-0ZM0.25,-0.413L0.25,-0.5L0.504,-0.5C0.593,-0.499 0.595,-0.499 0.609,-0.494C0.635,-0.485 0.644,-0.468 0.644,-0.458C0.644,-0.451 0.638,-0.436 0.619,-0.424C0.602,-0.414 0.598,-0.414 0.504,-0.413L0.25,-0.413Z" style="fill:rgb(255,0,0);fill-rule:nonzero;"/>
            </g>
        </g>
        <g id="Layer1">
            <g transform="matrix(1.22196,0,0,1,-491.549,283.744)">
                <rect x="577" y="320" width="1685" height="19" style="fill:rgb(255,0,0);"/>
            </g>
            <g transform="matrix(1.22196,0,0,1,-491.549,60.7441)">
                <rect x="577" y="320" width="1685" height="19" style="fill:rgb(255,0,0);"/>
            </g>
            <g transform="matrix(1.22196,0,0,1,-491.549,506.744)">
                <rect x="577" y="320" width="1685" height="19" style="fill:rgb(255,0,0);"/>
            </g>
            <g transform="matrix(1.22196,0,0,1,-491.549,395.244)">
                <rect x="577" y="320" width="1685" height="19" style="fill:rgb(255,0,0);"/>
            </g>
            <g transform="matrix(1.22196,0,0,1,-491.549,172.244)">
                <rect x="577" y="320" width="1685" height="19" style="fill:rgb(255,0,0);"/>
            </g>
        </g>
    </g>
</svg>
